HIERARCHY
ROOT Hips
{
  OFFSET -35.2597 29.1586 114.425
  CHANNELS 6 Xposition Yposition Zposition Zrotation Xrotation Yrotation
  JOINT LeftUpLeg
  {
    OFFSET 8.64259 1.95398 -2.38835
    CHANNELS 3 Zrotation Xrotation Yrotation
    JOINT LeftLeg
    {
      OFFSET 43.7702 0 0
      CHANNELS 3 Zrotation Xrotation Yrotation
      JOINT LeftFoot
      {
        OFFSET 40.6238 0 0
        CHANNELS 3 Zrotation Xrotation Yrotation
        JOINT LeftToeBase
        {
          OFFSET 12.7242 0 0
          CHANNELS 3 Zrotation Xrotation Yrotation
          End Site
          {
            OFFSET 0 0 0
          }
        }
      }
    }
  }
  JOINT RightUpLeg
  {
    OFFSET -8.2249 1.95398 -2.59336
    CHANNELS 3 Zrotation Xrotation Yrotation
    JOINT RightLeg
    {
      OFFSET 43.5653 0 0
      CHANNELS 3 Zrotation Xrotation Yrotation
      JOINT RightFoot
      {
        OFFSET 40.6238 0 0
        CHANNELS 3 Zrotation Xrotation Yrotation
        JOINT RightToeBase
        {
          OFFSET 12.7242 0 0
          CHANNELS 3 Zrotation Xrotation Yrotation
          End Site
          {
            OFFSET 0 0 0
          }
        }
      }
    }
  }
  JOINT Spine
  {
    OFFSET 0.165834 0.87714 6.61349
    CHANNELS 3 Zrotation Xrotation Yrotation
    JOINT Spine1
    {
      OFFSET 7.38963 1.71661e-005 0
      CHANNELS 3 Zrotation Xrotation Yrotation
      JOINT Spine2
      {
        OFFSET 11.9445 1.14441e-005 0
        CHANNELS 3 Zrotation Xrotation Yrotation
        JOINT Spine3
        {
          OFFSET 14.7254 4.19617e-005 0
          CHANNELS 3 Zrotation Xrotation Yrotation
          JOINT Spine4
          {
            OFFSET 10.9679 0 0
            CHANNELS 3 Zrotation Xrotation Yrotation
            JOINT RightShoulder
            {
              OFFSET 2.46616 -1.6653 3.69651
              CHANNELS 3 Zrotation Xrotation Yrotation
              JOINT RightArm
              {
                OFFSET 13.0012 0 0
                CHANNELS 3 Zrotation Xrotation Yrotation
                JOINT RightForeArm
                {
                  OFFSET 28.7848 1.62311e-005 0
                  CHANNELS 3 Zrotation Xrotation Yrotation
                  JOINT RightHand
                  {
                    OFFSET 26.5688 1.62095e-005 0
                    CHANNELS 3 Zrotation Xrotation Yrotation
                    End Site
                    {
                      OFFSET 0 0 0
                    }
                  }
                }
              }
            }
            JOINT LeftShoulder
            {
              OFFSET 2.38034 -1.29275 -3.7523
              CHANNELS 3 Zrotation Xrotation Yrotation
              JOINT LeftArm
              {
                OFFSET 16.3182 6.07031e-005 0
                CHANNELS 3 Zrotation Xrotation Yrotation
                JOINT LeftForeArm
                {
                  OFFSET 27.0901 0 0
                  CHANNELS 3 Zrotation Xrotation Yrotation
                  JOINT LeftHand
                  {
                    OFFSET 24.5451 1.51738e-005 0
                    CHANNELS 3 Zrotation Xrotation Yrotation
                    End Site
                    {
                      OFFSET 0 0 0
                    }
                  }
                }
              }
            }
            JOINT Neck
            {
              OFFSET 5.0226 -0.0266342 0
              CHANNELS 3 Zrotation Xrotation Yrotation
              JOINT Head
              {
                OFFSET 6.69364 2.86102e-005 0
                CHANNELS 3 Zrotation Xrotation Yrotation
                End Site
                {
                  OFFSET 0 0 0
                }
              }
            }
          }
        }
      }
    }
  }
}
MOTION
Frames:	17
Frame Time:	0.0416667
216.022 100.019 221.556 -103.728 -58.8336 -101.479 -175.226 -1.79542 89.6541 -14.8065 15.3539 1.25303 64.4514 3.27282 3.4826 31.3132 0.309746 2.03838 173.172 -5.15014 86.6992 -12.4221 -14.1886 -2.51957 65.455 -3.95988 0.319246 23.1757 1.19985 3.43173 0.140263 8.22826 -90.0287 10.4175 0.266317 -0.0804352 -1.25346 0.262501 -0.0920791 -23.7888 0.278164 0.00427277 -3.77619 0.278157 0.0042759 85.5712 -37.8764 -111.857 42.1817 7.8982 -5.21817 -5.02104 -37.672 -5.29468 -24.7509 3.20283 -20.1192 -87.9249 -59.7904 83.4461 -23.8811 -13.2998 -16.0869 2.91757 25.2325 -3.98401 -18.511 7.9271 -56.9729 5.72592 0.354196 -5.44942 -4.52272 1.29194 2.84894 
216.037 99.955 221.728 -104.109 -58.4054 -101.927 -175.515 -2.36304 89.2389 -14.5655 15.3004 1.45832 63.9371 2.96501 3.29976 32.9238 -0.590664 5.88503 173.136 -4.90823 86.4856 -13.5339 -14.4391 -2.6805 65.8711 -4.15161 0.227507 23.3325 1.08987 3.56776 0.16539 8.25915 -90.0319 10.3557 0.314945 -0.0907877 -1.31519 0.310627 -0.104563 -23.8507 0.327652 0.00827641 -3.83801 0.327668 0.00827749 85.3741 -37.2515 -112.458 42.8229 7.72617 -4.80932 -4.95012 -36.4848 -5.25839 -25.5621 3.32922 -20.1835 -88.0263 -59.8335 83.3158 -23.7224 -13.379 -16.0692 2.93737 25.81 -4.00326 -18.7198 7.93991 -56.453 5.68672 0.177183 -5.52381 -4.39911 1.13197 2.89125 
216 99.8922 221.788 -104.259 -58.4685 -102.045 -175.37 -2.15285 89.3649 -15.2073 14.91 1.33825 64.6903 3.57414 3.1895 32.5211 0.159968 3.7433 173.023 -4.53824 86.4185 -14.4924 -14.5291 -2.55099 66.2059 -4.35905 0.0625522 23.5344 1.03174 3.50317 0.115992 8.27324 -90.0525 10.3276 0.207106 -0.12219 -1.34329 0.201531 -0.131192 -23.8786 0.234264 -0.0542938 -3.86594 0.234256 -0.0542992 85.4289 -37.1559 -112.402 42.8171 7.74844 -4.72629 -4.95879 -36.6313 -5.26273 -25.8644 3.36978 -20.1752 -87.9019 -59.9245 83.4971 -23.375 -13.5503 -16.0626 2.96058 26.4907 -4.02672 -19.3202 8.04369 -55.3984 5.57242 0.404477 -5.45148 -4.32387 1.33591 2.96452 
216.036 99.7779 221.806 -104.498 -58.3093 -102.246 -174.793 -1.77327 89.7565 -16.2657 15.5399 0.700004 64.8626 3.64813 2.89764 33.2053 0.346055 4.13477 173.131 -4.05829 86.4245 -15.7749 -14.4717 -2.63875 66.6209 -4.69572 0.0117178 23.8395 0.867053 3.63055 0.117021 8.33457 -90.0817 10.2048 0.196002 -0.178863 -1.4661 0.187917 -0.187321 -24.0013 0.24068 -0.111696 -3.98868 0.240687 -0.111692 85.8346 -36.9733 -111.764 42.6666 7.75302 -4.97238 -4.99006 -37.1583 -5.27861 -24.7557 3.32738 -20.6926 -87.9975 -60.1351 83.4002 -23.0297 -13.7064 -16.3396 2.96789 26.708 -4.03439 -20.0694 8.10335 -53.7738 5.71739 0.364702 -5.18993 -3.93864 1.26617 2.8766 
216.068 99.6188 221.758 -104.803 -57.9821 -102.68 -174.79 -1.40398 89.5286 -17.4276 15.5332 0.596277 65.4201 4.32124 4.09922 33.2433 0.210758 4.48567 172.92 -3.23413 86.0818 -17.7167 -14.9038 -2.55003 67.397 -5.24783 -0.134135 23.9824 0.80531 3.64507 0.14836 8.39188 -90.0654 10.0903 0.265842 -0.152015 -1.58063 0.258886 -0.163571 -24.116 0.299234 -0.065087 -4.10334 0.299217 -0.0651005 85.3072 -37.4399 -112.497 41.8317 8.18266 -4.61456 -4.96549 -36.7443 -5.26613 -24.4448 3.43272 -21.3858 -88.1467 -59.8193 83.1512 -22.7237 -13.8492 -16.5249 3.01389 27.9326 -4.07925 -21.1722 8.20199 -51.662 5.49358 0.378721 -5.32587 -3.38988 1.31253 2.68659 
216.19 99.3838 221.688 -104.493 -57.1966 -102.827 -175.223 -0.701411 88.7838 -18.8837 14.0627 0.704169 65.8867 4.49589 3.43787 33.441 -0.436778 6.17715 172.922 -1.54887 85.5565 -20.6601 -15.4183 -2.71548 68.3373 -5.84804 0.0483501 24.2617 0.848839 3.19124 0.195632 8.43042 -90.0609 10.0133 0.362148 -0.150561 -1.65762 0.355163 -0.166363 -24.1932 0.390646 -0.0347581 -4.18052 0.390637 -0.0347727 85.7804 -36.6812 -111.98 42.3231 7.96461 -4.67965 -4.9203 -35.9756 -5.24349 -25.4141 3.53048 -21.1784 -88.3236 -60.1247 82.9599 -22.2402 -14.0754 -16.8549 3.05881 29.1865 -4.12375 -21.955 8.00692 -48.9764 5.24074 0.372781 -5.27421 -3.53735 1.26593 3.46679 
216.036 99.109 221.552 -105.237 -57.055 -103.609 -174.711 -0.354132 89.0654 -20.4293 14.5513 0.237744 66.6875 5.19073 3.85593 33.8056 0.0421209 5.54857 172.811 -0.748758 85.4301 -23.058 -15.9149 -2.58688 69.0997 -6.5535 -0.942543 24.1762 0.807783 3.4121 0.159335 8.52891 -90.0445 9.81624 0.297527 -0.112207 -1.85467 0.292304 -0.125196 -24.3901 0.317463 -0.0175997 -4.37746 0.317489 -0.017602 85.6211 -36.9521 -112.149 41.9789 8.09408 -4.73546 -4.93422 -36.2172 -5.25032 -24.8875 3.51217 -21.4489 -88.1273 -59.931 83.1943 -21.6765 -14.3479 -17.097 3.10065 30.3457 -4.16431 -23.2769 8.04184 -46.5202 5.54575 0.427539 -4.79987 -3.59667 1.26497 2.4073 
215.863 98.9135 221.442 -106.03 -56.9278 -104.34 -174.626 -0.167703 89.1553 -21.8432 14.691 0.260379 67.2274 5.49834 3.59409 34.0338 0.00482978 5.91853 172.937 -0.227377 85.4615 -25.0584 -15.1472 -2.63907 69.9086 -6.96095 -0.156015 24.1236 0.963863 3.0151 0.124578 8.60633 -90.0786 9.66138 0.21282 -0.172569 -2.00958 0.205025 -0.181789 -24.5448 0.254843 -0.100638 -4.53218 0.254845 -0.100634 85.6362 -36.5498 -112.29 42.4707 7.92579 -4.58465 -4.85698 -34.8762 -5.21269 -26.0892 3.49771 -20.5984 -88.215 -60.1731 83.1136 -21.054 -14.6557 -17.2147 3.15722 31.4954 -4.22822 -24.1382 7.77209 -43.7049 4.67412 0.740581 -5.18019 -2.21211 1.62949 2.97829 
215.599 98.8083 221.31 -105.919 -56.5499 -104.251 -174.164 0.171587 89.5703 -22.5337 14.3118 -0.0774572 67.6444 5.65722 3.28181 34.1713 0.205908 5.63107 173.179 0.201896 85.6695 -26.0578 -15.3861 -2.71407 70.2041 -7.3685 -0.688276 24.5146 0.63141 3.53723 0.167046 8.64826 -90.0551 9.57756 0.308213 -0.132903 -2.09335 0.302076 -0.14635 -24.6288 0.333917 -0.0341203 -4.61615 0.333901 -0.03413 85.5388 -37.3452 -112.131 41.8289 8.23412 -4.39326 -4.92511 -36.0606 -5.24582 -26.2532 3.58711 -20.8823 -88.2148 -59.1825 82.9605 -21.0802 -14.6364 -17.443 3.20751 32.7609 -4.27705 -24.6996 7.21048 -40.1974 4.83078 0.515172 -5.51393 -2.24393 1.47543 2.79851 
215.353 98.7044 221.202 -105.145 -55.8663 -103.877 -174.215 0.320729 89.2919 -22.6445 13.5269 -0.186936 67.7216 5.40665 2.63037 34.6997 0.253605 6.18451 173.582 1.19632 85.6343 -27.4174 -15.0407 -3.01761 70.6846 -7.66926 -0.0512759 24.6416 0.650051 3.33247 0.168682 8.62774 -90.0449 9.61861 0.316105 -0.113393 -2.0523 0.310821 -0.127205 -24.5878 0.335571 -0.0131549 -4.57512 0.335573 -0.013145 85.6209 -36.7426 -112.236 41.6041 8.42906 -3.93363 -4.99257 -37.1999 -5.27999 -23.9273 3.41206 -21.6591 -87.9161 -59.4754 83.4105 -20.4866 -14.941 -17.1444 3.25637 33.481 -4.3379 -24.9966 6.59199 -36.8921 4.75651 0.786068 -5.16927 -2.63704 1.66373 3.01045 
214.991 98.5527 220.876 -103.445 -55.0309 -102.475 -174.249 1.2653 89.5021 -23.039 12.6492 -0.241693 67.7383 5.13104 3.06013 35.5159 0.892786 5.72902 174.917 2.66953 86.4215 -28.8053 -14.4117 -3.60809 70.9625 -8.0625 -0.108973 24.8652 0.572896 3.2981 0.221092 8.58872 -90.0261 9.6966 0.429128 -0.0853713 -1.97426 0.424954 -0.104186 -24.51 0.434942 0.047544 -4.49735 0.434947 0.0475469 85.6331 -36.6058 -112.273 42.4939 8.03536 -4.0776 -4.90949 -35.7904 -5.23787 -26.003 3.43393 -20.3636 -87.846 -59.1372 83.4546 -20.5244 -14.9228 -17.1101 3.29476 34.3392 -4.3769 -23.2551 5.43875 -33.7296 4.92386 1.06343 -5.14641 -2.34898 1.94737 2.93903 
214.374 98.4798 220.343 -101.729 -54.2122 -101.103 -173.701 2.3014 90.0636 -23.2098 11.7472 -0.742706 67.9535 4.85704 2.13651 34.8675 0.752412 5.23776 176.057 4.39245 87.3208 -30.4597 -14.3154 -3.97897 70.9117 -8.30044 -0.762782 24.486 0.819291 3.01232 0.176816 8.54159 -90.0547 9.79039 0.327701 -0.134789 -1.88052 0.321464 -0.149089 -24.416 0.353065 -0.030064 -4.40332 0.353067 -0.030063 85.9906 -36.0711 -111.856 42.5588 7.98137 -4.19006 -4.9785 -36.9623 -5.27234 -24.5023 3.40243 -21.2216 -87.7567 -60.3927 83.7639 -19.5797 -15.3998 -16.6272 3.29699 34.6367 -4.37185 -20.4801 4.25837 -31.2123 5.48152 1.5278 -4.10003 -2.76675 2.22394 2.39974 
213.565 98.3868 219.525 -99.6064 -53.6151 -99.3342 -173.537 3.56605 90.6889 -23.0216 11.4717 -0.85247 67.6441 4.58625 2.18492 35.192 0.77628 5.58965 176.859 6.71809 88.3548 -32.3322 -14.661 -3.99478 70.3014 -8.07943 -2.29102 24.6848 0.559447 3.55131 0.284187 8.58141 -89.8236 9.7102 0.646428 0.299168 -1.96061 0.658934 0.270426 -24.4964 0.526614 0.479612 -4.48378 0.526594 0.479609 85.6454 -39.0288 -111.268 41.6206 8.05922 -5.5457 -4.98165 -37.0185 -5.27429 -26.0419 3.67995 -21.4202 -87.9468 -56.135 82.8478 -22.1903 -14.0975 -16.9251 3.22265 33.194 -4.29041 -15.6515 2.68878 -27.9132 7.1948 0.774719 -8.22345 -2.58074 2.35781 4.3753 
212.6 98.4147 218.371 -97.0752 -53.9213 -97.1198 -172.797 5.44774 92.0605 -22.6874 12.366 -1.42673 67.1643 4.46875 1.43254 35.6528 0.910878 5.86065 176.041 9.70979 89.0947 -34.1427 -13.9554 -2.71057 69.8837 -7.43246 -2.46238 23.1645 0.88323 4.34765 0.0205295 8.50095 -89.944 9.87229 0.0663202 0.105859 -1.79865 0.0709119 0.102831 -24.3338 0.0314353 0.120887 -4.32119 0.0314385 0.120889 86.2449 -36.0198 -111.426 43.7423 7.12093 -5.69873 -4.92392 -36.0382 -5.24529 -26.4096 3.77003 -21.5681 -88.1499 -59.2338 83.056 -20.143 -15.1155 -16.9765 3.2718 34.6042 -4.3322 -11.0904 1.48253 -24.8182 7.89195 1.97364 -5.2958 -2.0152 3.00477 2.69768 
211.653 98.0655 217.039 -94.603 -53.5704 -94.0243 -171.951 8.49591 94.2319 -24.7282 13.4933 -1.74734 67.5576 4.86543 1.61605 36.2488 1.03738 6.35458 174.407 12.585 90.1677 -35.7527 -11.6994 -0.400223 69.8876 -7.14613 -1.91233 23.274 0.603264 5.03067 -0.0239056 8.43096 -89.9724 10.0129 -0.0351615 0.0568178 -1.65806 -0.0326263 0.0583104 -24.1933 -0.0506002 0.0436249 -4.18063 -0.050612 0.0436249 85.3869 -35.9406 -112.991 43.6602 7.32595 -5.0128 -5.03145 -37.8437 -5.29993 -28.1407 3.91302 -21.09 -87.9485 -58.9414 83.2815 -20.2853 -15.0434 -16.9396 3.2904 34.5559 -4.36252 -5.75778 0.455352 -22.5881 8.84797 2.21879 -6.48858 -1.73331 3.55113 2.77617 
210.4 97.3723 215.308 -92.1402 -53.5818 -91.2196 -170.474 12.6962 96.6578 -28.1401 15.7704 -2.5023 68.3218 5.83137 1.55189 37.0373 1.21838 6.94241 172.168 16.5278 90.4301 -39.6523 -7.91857 1.83059 70.7762 -7.4124 -2.40682 25.8671 -0.995995 7.00183 0.081405 8.42766 -89.8436 10.018 0.233383 0.291302 -1.65294 0.245962 0.280751 -24.1879 0.135043 0.347986 -4.17527 0.135026 0.347969 85.3137 -36.2859 -112.973 43.7923 7.38138 -4.568 -5.13511 -39.5082 -5.35624 -28.804 3.93996 -20.7971 -88.0498 -56.4121 82.7489 -21.3772 -14.4616 -18.3391 3.31522 35.26 -4.38412 -1.11414 -0.267684 -20.524 10.7867 1.4578 -8.6722 -1.65656 3.4184 2.26199 
209.038 96.184 213.411 -87.9074 -53.2585 -86.0877 -169.277 18.9106 99.6813 -32.8783 18.794 -2.8278 69.2949 6.98084 2.3369 38.5788 1.52288 8.3314 170.792 21.9826 90.8506 -44.9142 -4.43941 3.14346 72.1989 -8.14543 -3.44067 24.6405 -0.902214 8.04188 0.264091 8.32247 -89.8264 10.2282 0.605574 0.292956 -1.44266 0.617855 0.266006 -23.9784 0.489526 0.461417 -3.9657 0.489512 0.461396 85.7258 -35.7255 -112.479 44.7219 7.09764 -4.16537 -4.91437 -35.8748 -5.24056 -27.2214 3.95093 -21.8055 -87.8168 -54.062 82.695 -22.1388 -13.9703 -20.7669 3.41301 37.1057 -4.48603 1.56134 -0.60462 -19.2562 13.3851 0.338816 -10.3545 -2.33976 2.95407 1.10469 
